<svg xmlns="http://www.w3.org/2000/svg" width="320" height="320" viewBox="0 0 320 320"><defs><linearGradient id="b" x2="0" y2="1"><stop stop-color="#f6d9a6"/><stop offset="1" stop-color="#d7856b"/></linearGradient></defs><rect width="320" height="320" fill="#79a8a0"/><circle cx="160" cy="158" r="112" fill="#563a33"/><ellipse cx="160" cy="167" rx="82" ry="100" fill="url(#b)"/><path d="M78 145Q74 43 160 48q92 3 83 102-31-15-54-55-39 43-111 50" fill="#3d2a29"/><ellipse cx="128" cy="163" rx="9" ry="13" fill="#332826"/><ellipse cx="194" cy="163" rx="9" ry="13" fill="#332826"/><circle cx="131" cy="159" r="3" fill="#fff"/><circle cx="197" cy="159" r="3" fill="#fff"/><path d="M145 211q17 14 34 0" fill="none" stroke="#a94f55" stroke-width="6" stroke-linecap="round"/><path d="M105 137q22-15 43 0M176 137q21-15 40 1" fill="none" stroke="#54352e" stroke-width="7" stroke-linecap="round"/><path d="M76 275q84-51 168 0v45H76z" fill="#e9b64d"/></svg>
